<?xml version="1.0" encoding="UTF-8" standalone="no"?>
<svg xmlns="http://www.w3.org/2000/svg" width="1508" height="286">
<!-- Generated by svg-heatmap -->
<!-- https://www.npmjs.com/package/svg-heatmap -->
<style>
  .outline { fill: none; stroke: #DDD; stroke-width: 2px }
  .square { stroke: none }
  .label { font-family: sans-serif }
</style>
<defs>
  <linearGradient id="legend-grad" x1="0%" y1="0%" x2="100%" y2="0%">
    <stop offset="0%" style="stop-color:hsl(1, 100%, 50%);stop-opacity:1" />
    <stop offset="100%" style="stop-color:hsl(60, 100%, 50%);stop-opacity:1" />
  </linearGradient>
</defs>
<rect x="0" y="0" width="1508" height="286" rx="18" class="outline"/><text x="1438" y="264" class="label" text-anchor="start">More</text><rect x="1411" y="248" width="20" height="20" rx="2" style="fill:#216e39" class="square"/><rect x="1384" y="248" width="20" height="20" rx="2" style="fill:#30a14e" class="square"/><rect x="1357" y="248" width="20" height="20" rx="2" style="fill:#40c463" class="square"/><rect x="1330" y="248" width="20" height="20" rx="2" style="fill:#9be9a8" class="square"/><rect x="1303" y="248" width="20" height="20" rx="2" style="fill:#ebedf0" class="square"/><text x="1296" y="264" class="label" text-anchor="end">Less</text><text x="50" y="62.6" class="label" text-anchor="end">Sun</text><text x="50" y="89.6" class="label" text-anchor="end">Mon</text><text x="50" y="116.6" class="label" text-anchor="end">Tue</text><text x="50" y="143.6" class="label" text-anchor="end">Web</text><text x="50" y="170.6" class="label" text-anchor="end">Thu</text><text x="50" y="197.6" class="label" text-anchor="end">Fri</text><text x="50" y="224.6" class="label" text-anchor="end">Sat</text><text x="67" y="30" class="label" text-anchor="start">Jan</text><text x="175" y="30" class="label" text-anchor="start">Feb</text><text x="283" y="30" class="label" text-anchor="start">Mar</text><text x="418" y="30" class="label" text-anchor="start">Apr</text><text x="526" y="30" class="label" text-anchor="start">May</text><text x="634" y="30" class="label" text-anchor="start">Jun</text><text x="769" y="30" class="label" text-anchor="start">Jul</text><text x="877" y="30" class="label" text-anchor="start">Aug</text><text x="1012" y="30" class="label" text-anchor="start">Sep</text><text x="1120" y="30" class="label" text-anchor="start">Oct</text><text x="1228" y="30" class="label" text-anchor="start">Nov</text><text x="1363" y="30" class="label" text-anchor="start">Dec</text><rect x="67" y="47" width="20" height="20" rx="2" style="fill:#ebedf0" class="square"/><rect x="67" y="74" width="20" height="20" rx="2" style="fill:#ebedf0" class="square"/><rect x="67" y="101" width="20" height="20" rx="2" style="fill:#40c463" class="square"/><rect x="67" y="128" width="20" height="20" rx="2" style="fill:#9be9a8" class="square"/><rect x="67" y="155" width="20" height="20" rx="2" style="fill:#40c463" class="square"/><rect x="67" y="182" width="20" height="20" rx="2" style="fill:#ebedf0" class="square"/><rect x="67" y="209" width="20" height="20" rx="2" style="fill:#30a14e" class="square"/><rect x="94" y="47" width="20" height="20" rx="2" style="fill:#9be9a8" class="square"/><rect x="94" y="74" width="20" height="20" rx="2" style="fill:#ebedf0" class="square"/><rect x="94" y="101" width="20" height="20" rx="2" style="fill:#ebedf0" class="square"/><rect x="94" y="128" width="20" height="20" rx="2" style="fill:#ebedf0" class="square"/><rect x="94" y="155" width="20" height="20" rx="2" style="fill:#40c463" class="square"/><rect x="94" y="182" width="20" height="20" rx="2" style="fill:#30a14e" class="square"/><rect x="94" y="209" width="20" height="20" rx="2" style="fill:#216e39" class="square"/><rect x="121" y="47" width="20" height="20" rx="2" style="fill:#30a14e" class="square"/><rect x="121" y="74" width="20" height="20" rx="2" style="fill:#30a14e" class="square"/><rect x="121" y="101" width="20" height="20" rx="2" style="fill:#216e39" class="square"/><rect x="121" y="128" width="20" height="20" rx="2" style="fill:#40c463" class="square"/><rect x="121" y="155" width="20" height="20" rx="2" style="fill:#40c463" class="square"/><rect x="121" y="182" width="20" height="20" rx="2" style="fill:#30a14e" class="square"/><rect x="121" y="209" width="20" height="20" rx="2" style="fill:#9be9a8" class="square"/><rect x="148" y="47" width="20" height="20" rx="2" style="fill:#216e39" class="square"/><rect x="148" y="74" width="20" height="20" rx="2" style="fill:#30a14e" class="square"/><rect x="148" y="101" width="20" height="20" rx="2" style="fill:#216e39" class="square"/><rect x="148" y="128" width="20" height="20" rx="2" style="fill:#9be9a8" class="square"/><rect x="148" y="155" width="20" height="20" rx="2" style="fill:#ebedf0" class="square"/><rect x="148" y="182" width="20" height="20" rx="2" style="fill:#40c463" class="square"/><rect x="148" y="209" width="20" height="20" rx="2" style="fill:#ebedf0" class="square"/><rect x="175" y="47" width="20" height="20" rx="2" style="fill:#ebedf0" class="square"/><rect x="175" y="74" width="20" height="20" rx="2" style="fill:#40c463" class="square"/><rect x="175" y="101" width="20" height="20" rx="2" style="fill:#ebedf0" class="square"/><rect x="175" y="128" width="20" height="20" rx="2" style="fill:#ebedf0" class="square"/><rect x="175" y="155" width="20" height="20" rx="2" style="fill:#216e39" class="square"/><rect x="175" y="182" width="20" height="20" rx="2" style="fill:#9be9a8" class="square"/><rect x="175" y="209" width="20" height="20" rx="2" style="fill:#216e39" class="square"/><rect x="202" y="47" width="20" height="20" rx="2" style="fill:#9be9a8" class="square"/><rect x="202" y="74" width="20" height="20" rx="2" style="fill:#9be9a8" class="square"/><rect x="202" y="101" width="20" height="20" rx="2" style="fill:#9be9a8" class="square"/><rect x="202" y="128" width="20" height="20" rx="2" style="fill:#216e39" class="square"/><rect x="202" y="155" width="20" height="20" rx="2" style="fill:#ebedf0" class="square"/><rect x="202" y="182" width="20" height="20" rx="2" style="fill:#40c463" class="square"/><rect x="202" y="209" width="20" height="20" rx="2" style="fill:#9be9a8" class="square"/><rect x="229" y="47" width="20" height="20" rx="2" style="fill:#40c463" class="square"/><rect x="229" y="74" width="20" height="20" rx="2" style="fill:#216e39" class="square"/><rect x="229" y="101" width="20" height="20" rx="2" style="fill:#30a14e" class="square"/><rect x="229" y="128" width="20" height="20" rx="2" style="fill:#216e39" class="square"/><rect x="229" y="155" width="20" height="20" rx="2" style="fill:#ebedf0" class="square"/><rect x="229" y="182" width="20" height="20" rx="2" style="fill:#40c463" class="square"/><rect x="229" y="209" width="20" height="20" rx="2" style="fill:#40c463" class="square"/><rect x="256" y="47" width="20" height="20" rx="2" style="fill:#30a14e" class="square"/><rect x="256" y="74" width="20" height="20" rx="2" style="fill:#30a14e" class="square"/><rect x="256" y="101" width="20" height="20" rx="2" style="fill:#30a14e" class="square"/><rect x="256" y="128" width="20" height="20" rx="2" style="fill:#216e39" class="square"/><rect x="256" y="155" width="20" height="20" rx="2" style="fill:#40c463" class="square"/><rect x="256" y="182" width="20" height="20" rx="2" style="fill:#ebedf0" class="square"/><rect x="256" y="209" width="20" height="20" rx="2" style="fill:#ebedf0" class="square"/><rect x="283" y="47" width="20" height="20" rx="2" style="fill:#9be9a8" class="square"/><rect x="283" y="74" width="20" height="20" rx="2" style="fill:#9be9a8" class="square"/><rect x="283" y="101" width="20" height="20" rx="2" style="fill:#9be9a8" class="square"/><rect x="283" y="128" width="20" height="20" rx="2" style="fill:#9be9a8" class="square"/><rect x="283" y="155" width="20" height="20" rx="2" style="fill:#9be9a8" class="square"/><rect x="283" y="182" width="20" height="20" rx="2" style="fill:#30a14e" class="square"/><rect x="283" y="209" width="20" height="20" rx="2" style="fill:#ebedf0" class="square"/><rect x="310" y="47" width="20" height="20" rx="2" style="fill:#9be9a8" class="square"/><rect x="310" y="74" width="20" height="20" rx="2" style="fill:#40c463" class="square"/><rect x="310" y="101" width="20" height="20" rx="2" style="fill:#40c463" class="square"/><rect x="310" y="128" width="20" height="20" rx="2" style="fill:#ebedf0" class="square"/><rect x="310" y="155" width="20" height="20" rx="2" style="fill:#216e39" class="square"/><rect x="310" y="182" width="20" height="20" rx="2" style="fill:#9be9a8" class="square"/><rect x="310" y="209" width="20" height="20" rx="2" style="fill:#40c463" class="square"/><rect x="337" y="47" width="20" height="20" rx="2" style="fill:#30a14e" class="square"/><rect x="337" y="74" width="20" height="20" rx="2" style="fill:#216e39" class="square"/><rect x="337" y="101" width="20" height="20" rx="2" style="fill:#ebedf0" class="square"/><rect x="337" y="128" width="20" height="20" rx="2" style="fill:#40c463" class="square"/><rect x="337" y="155" width="20" height="20" rx="2" style="fill:#40c463" class="square"/><rect x="337" y="182" width="20" height="20" rx="2" style="fill:#9be9a8" class="square"/><rect x="337" y="209" width="20" height="20" rx="2" style="fill:#216e39" class="square"/><rect x="364" y="47" width="20" height="20" rx="2" style="fill:#40c463" class="square"/><rect x="364" y="74" width="20" height="20" rx="2" style="fill:#40c463" class="square"/><rect x="364" y="101" width="20" height="20" rx="2" style="fill:#ebedf0" class="square"/><rect x="364" y="128" width="20" height="20" rx="2" style="fill:#9be9a8" class="square"/><rect x="364" y="155" width="20" height="20" rx="2" style="fill:#40c463" class="square"/><rect x="364" y="182" width="20" height="20" rx="2" style="fill:#216e39" class="square"/><rect x="364" y="209" width="20" height="20" rx="2" style="fill:#ebedf0" class="square"/><rect x="391" y="47" width="20" height="20" rx="2" style="fill:#ebedf0" class="square"/><rect x="391" y="74" width="20" height="20" rx="2" style="fill:#9be9a8" class="square"/><rect x="391" y="101" width="20" height="20" rx="2" style="fill:#9be9a8" class="square"/><rect x="391" y="128" width="20" height="20" rx="2" style="fill:#9be9a8" class="square"/><rect x="391" y="155" width="20" height="20" rx="2" style="fill:#216e39" class="square"/><rect x="391" y="182" width="20" height="20" rx="2" style="fill:#9be9a8" class="square"/><rect x="391" y="209" width="20" height="20" rx="2" style="fill:#ebedf0" class="square"/><rect x="418" y="47" width="20" height="20" rx="2" style="fill:#216e39" class="square"/><rect x="418" y="74" width="20" height="20" rx="2" style="fill:#40c463" class="square"/><rect x="418" y="101" width="20" height="20" rx="2" style="fill:#216e39" class="square"/><rect x="418" y="128" width="20" height="20" rx="2" style="fill:#9be9a8" class="square"/><rect x="418" y="155" width="20" height="20" rx="2" style="fill:#9be9a8" class="square"/><rect x="418" y="182" width="20" height="20" rx="2" style="fill:#9be9a8" class="square"/><rect x="418" y="209" width="20" height="20" rx="2" style="fill:#40c463" class="square"/><rect x="445" y="47" width="20" height="20" rx="2" style="fill:#40c463" class="square"/><rect x="445" y="74" width="20" height="20" rx="2" style="fill:#9be9a8" class="square"/><rect x="445" y="101" width="20" height="20" rx="2" style="fill:#40c463" class="square"/><rect x="445" y="128" width="20" height="20" rx="2" style="fill:#9be9a8" class="square"/><rect x="445" y="155" width="20" height="20" rx="2" style="fill:#40c463" class="square"/><rect x="445" y="182" width="20" height="20" rx="2" style="fill:#ebedf0" class="square"/><rect x="445" y="209" width="20" height="20" rx="2" style="fill:#40c463" class="square"/><rect x="472" y="47" width="20" height="20" rx="2" style="fill:#216e39" class="square"/><rect x="472" y="74" width="20" height="20" rx="2" style="fill:#9be9a8" class="square"/><rect x="472" y="101" width="20" height="20" rx="2" style="fill:#ebedf0" class="square"/><rect x="472" y="128" width="20" height="20" rx="2" style="fill:#40c463" class="square"/><rect x="472" y="155" width="20" height="20" rx="2" style="fill:#ebedf0" class="square"/><rect x="472" y="182" width="20" height="20" rx="2" style="fill:#ebedf0" class="square"/><rect x="472" y="209" width="20" height="20" rx="2" style="fill:#ebedf0" class="square"/><rect x="499" y="47" width="20" height="20" rx="2" style="fill:#9be9a8" class="square"/><rect x="499" y="74" width="20" height="20" rx="2" style="fill:#40c463" class="square"/><rect x="499" y="101" width="20" height="20" rx="2" style="fill:#9be9a8" class="square"/><rect x="499" y="128" width="20" height="20" rx="2" style="fill:#9be9a8" class="square"/><rect x="499" y="155" width="20" height="20" rx="2" style="fill:#9be9a8" class="square"/><rect x="499" y="182" width="20" height="20" rx="2" style="fill:#30a14e" class="square"/><rect x="499" y="209" width="20" height="20" rx="2" style="fill:#40c463" class="square"/><rect x="526" y="47" width="20" height="20" rx="2" style="fill:#9be9a8" class="square"/><rect x="526" y="74" width="20" height="20" rx="2" style="fill:#9be9a8" class="square"/><rect x="526" y="101" width="20" height="20" rx="2" style="fill:#9be9a8" class="square"/><rect x="526" y="128" width="20" height="20" rx="2" style="fill:#30a14e" class="square"/><rect x="526" y="155" width="20" height="20" rx="2" style="fill:#216e39" class="square"/><rect x="526" y="182" width="20" height="20" rx="2" style="fill:#40c463" class="square"/><rect x="526" y="209" width="20" height="20" rx="2" style="fill:#9be9a8" class="square"/><rect x="553" y="47" width="20" height="20" rx="2" style="fill:#30a14e" class="square"/><rect x="553" y="74" width="20" height="20" rx="2" style="fill:#216e39" class="square"/><rect x="553" y="101" width="20" height="20" rx="2" style="fill:#216e39" class="square"/><rect x="553" y="128" width="20" height="20" rx="2" style="fill:#216e39" class="square"/><rect x="553" y="155" width="20" height="20" rx="2" style="fill:#30a14e" class="square"/><rect x="553" y="182" width="20" height="20" rx="2" style="fill:#ebedf0" class="square"/><rect x="553" y="209" width="20" height="20" rx="2" style="fill:#ebedf0" class="square"/><rect x="580" y="47" width="20" height="20" rx="2" style="fill:#30a14e" class="square"/><rect x="580" y="74" width="20" height="20" rx="2" style="fill:#40c463" class="square"/><rect x="580" y="101" width="20" height="20" rx="2" style="fill:#216e39" class="square"/><rect x="580" y="128" width="20" height="20" rx="2" style="fill:#216e39" class="square"/><rect x="580" y="155" width="20" height="20" rx="2" style="fill:#216e39" class="square"/><rect x="580" y="182" width="20" height="20" rx="2" style="fill:#40c463" class="square"/><rect x="580" y="209" width="20" height="20" rx="2" style="fill:#40c463" class="square"/><rect x="607" y="47" width="20" height="20" rx="2" style="fill:#40c463" class="square"/><rect x="607" y="74" width="20" height="20" rx="2" style="fill:#216e39" class="square"/><rect x="607" y="101" width="20" height="20" rx="2" style="fill:#40c463" class="square"/><rect x="607" y="128" width="20" height="20" rx="2" style="fill:#9be9a8" class="square"/><rect x="607" y="155" width="20" height="20" rx="2" style="fill:#40c463" class="square"/><rect x="607" y="182" width="20" height="20" rx="2" style="fill:#40c463" class="square"/><rect x="607" y="209" width="20" height="20" rx="2" style="fill:#ebedf0" class="square"/><rect x="634" y="47" width="20" height="20" rx="2" style="fill:#216e39" class="square"/><rect x="634" y="74" width="20" height="20" rx="2" style="fill:#9be9a8" class="square"/><rect x="634" y="101" width="20" height="20" rx="2" style="fill:#ebedf0" class="square"/><rect x="634" y="128" width="20" height="20" rx="2" style="fill:#9be9a8" class="square"/><rect x="634" y="155" width="20" height="20" rx="2" style="fill:#ebedf0" class="square"/><rect x="634" y="182" width="20" height="20" rx="2" style="fill:#40c463" class="square"/><rect x="634" y="209" width="20" height="20" rx="2" style="fill:#ebedf0" class="square"/><rect x="661" y="47" width="20" height="20" rx="2" style="fill:#30a14e" class="square"/><rect x="661" y="74" width="20" height="20" rx="2" style="fill:#9be9a8" class="square"/><rect x="661" y="101" width="20" height="20" rx="2" style="fill:#216e39" class="square"/><rect x="661" y="128" width="20" height="20" rx="2" style="fill:#216e39" class="square"/><rect x="661" y="155" width="20" height="20" rx="2" style="fill:#216e39" class="square"/><rect x="661" y="182" width="20" height="20" rx="2" style="fill:#ebedf0" class="square"/><rect x="661" y="209" width="20" height="20" rx="2" style="fill:#30a14e" class="square"/><rect x="688" y="47" width="20" height="20" rx="2" style="fill:#40c463" class="square"/><rect x="688" y="74" width="20" height="20" rx="2" style="fill:#9be9a8" class="square"/><rect x="688" y="101" width="20" height="20" rx="2" style="fill:#ebedf0" class="square"/><rect x="688" y="128" width="20" height="20" rx="2" style="fill:#216e39" class="square"/><rect x="688" y="155" width="20" height="20" rx="2" style="fill:#ebedf0" class="square"/><rect x="688" y="182" width="20" height="20" rx="2" style="fill:#ebedf0" class="square"/><rect x="688" y="209" width="20" height="20" rx="2" style="fill:#ebedf0" class="square"/><rect x="715" y="47" width="20" height="20" rx="2" style="fill:#ebedf0" class="square"/><rect x="715" y="74" width="20" height="20" rx="2" style="fill:#9be9a8" class="square"/><rect x="715" y="101" width="20" height="20" rx="2" style="fill:#40c463" class="square"/><rect x="715" y="128" width="20" height="20" rx="2" style="fill:#ebedf0" class="square"/><rect x="715" y="155" width="20" height="20" rx="2" style="fill:#ebedf0" class="square"/><rect x="715" y="182" width="20" height="20" rx="2" style="fill:#216e39" class="square"/><rect x="715" y="209" width="20" height="20" rx="2" style="fill:#216e39" class="square"/><rect x="742" y="47" width="20" height="20" rx="2" style="fill:#40c463" class="square"/><rect x="742" y="74" width="20" height="20" rx="2" style="fill:#216e39" class="square"/><rect x="742" y="101" width="20" height="20" rx="2" style="fill:#216e39" class="square"/><rect x="742" y="128" width="20" height="20" rx="2" style="fill:#40c463" class="square"/><rect x="742" y="155" width="20" height="20" rx="2" style="fill:#ebedf0" class="square"/><rect x="742" y="182" width="20" height="20" rx="2" style="fill:#ebedf0" class="square"/><rect x="742" y="209" width="20" height="20" rx="2" style="fill:#ebedf0" class="square"/><rect x="769" y="47" width="20" height="20" rx="2" style="fill:#9be9a8" class="square"/><rect x="769" y="74" width="20" height="20" rx="2" style="fill:#30a14e" class="square"/><rect x="769" y="101" width="20" height="20" rx="2" style="fill:#40c463" class="square"/><rect x="769" y="128" width="20" height="20" rx="2" style="fill:#40c463" class="square"/><rect x="769" y="155" width="20" height="20" rx="2" style="fill:#216e39" class="square"/><rect x="769" y="182" width="20" height="20" rx="2" style="fill:#40c463" class="square"/><rect x="769" y="209" width="20" height="20" rx="2" style="fill:#ebedf0" class="square"/><rect x="796" y="47" width="20" height="20" rx="2" style="fill:#216e39" class="square"/><rect x="796" y="74" width="20" height="20" rx="2" style="fill:#9be9a8" class="square"/><rect x="796" y="101" width="20" height="20" rx="2" style="fill:#ebedf0" class="square"/><rect x="796" y="128" width="20" height="20" rx="2" style="fill:#40c463" class="square"/><rect x="796" y="155" width="20" height="20" rx="2" style="fill:#216e39" class="square"/><rect x="796" y="182" width="20" height="20" rx="2" style="fill:#216e39" class="square"/><rect x="796" y="209" width="20" height="20" rx="2" style="fill:#9be9a8" class="square"/><rect x="823" y="47" width="20" height="20" rx="2" style="fill:#216e39" class="square"/><rect x="823" y="74" width="20" height="20" rx="2" style="fill:#216e39" class="square"/><rect x="823" y="101" width="20" height="20" rx="2" style="fill:#30a14e" class="square"/><rect x="823" y="128" width="20" height="20" rx="2" style="fill:#40c463" class="square"/><rect x="823" y="155" width="20" height="20" rx="2" style="fill:#9be9a8" class="square"/><rect x="823" y="182" width="20" height="20" rx="2" style="fill:#30a14e" class="square"/><rect x="823" y="209" width="20" height="20" rx="2" style="fill:#40c463" class="square"/><rect x="850" y="47" width="20" height="20" rx="2" style="fill:#ebedf0" class="square"/><rect x="850" y="74" width="20" height="20" rx="2" style="fill:#30a14e" class="square"/><rect x="850" y="101" width="20" height="20" rx="2" style="fill:#9be9a8" class="square"/><rect x="850" y="128" width="20" height="20" rx="2" style="fill:#30a14e" class="square"/><rect x="850" y="155" width="20" height="20" rx="2" style="fill:#30a14e" class="square"/><rect x="850" y="182" width="20" height="20" rx="2" style="fill:#9be9a8" class="square"/><rect x="850" y="209" width="20" height="20" rx="2" style="fill:#40c463" class="square"/><rect x="877" y="47" width="20" height="20" rx="2" style="fill:#30a14e" class="square"/><rect x="877" y="74" width="20" height="20" rx="2" style="fill:#40c463" class="square"/><rect x="877" y="101" width="20" height="20" rx="2" style="fill:#216e39" class="square"/><rect x="877" y="128" width="20" height="20" rx="2" style="fill:#216e39" class="square"/><rect x="877" y="155" width="20" height="20" rx="2" style="fill:#9be9a8" class="square"/><rect x="877" y="182" width="20" height="20" rx="2" style="fill:#9be9a8" class="square"/><rect x="877" y="209" width="20" height="20" rx="2" style="fill:#30a14e" class="square"/><rect x="904" y="47" width="20" height="20" rx="2" style="fill:#216e39" class="square"/><rect x="904" y="74" width="20" height="20" rx="2" style="fill:#ebedf0" class="square"/><rect x="904" y="101" width="20" height="20" rx="2" style="fill:#216e39" class="square"/><rect x="904" y="128" width="20" height="20" rx="2" style="fill:#30a14e" class="square"/><rect x="904" y="155" width="20" height="20" rx="2" style="fill:#30a14e" class="square"/><rect x="904" y="182" width="20" height="20" rx="2" style="fill:#40c463" class="square"/><rect x="904" y="209" width="20" height="20" rx="2" style="fill:#30a14e" class="square"/><rect x="931" y="47" width="20" height="20" rx="2" style="fill:#30a14e" class="square"/><rect x="931" y="74" width="20" height="20" rx="2" style="fill:#ebedf0" class="square"/><rect x="931" y="101" width="20" height="20" rx="2" style="fill:#40c463" class="square"/><rect x="931" y="128" width="20" height="20" rx="2" style="fill:#40c463" class="square"/><rect x="931" y="155" width="20" height="20" rx="2" style="fill:#40c463" class="square"/><rect x="931" y="182" width="20" height="20" rx="2" style="fill:#ebedf0" class="square"/><rect x="931" y="209" width="20" height="20" rx="2" style="fill:#30a14e" class="square"/><rect x="958" y="47" width="20" height="20" rx="2" style="fill:#9be9a8" class="square"/><rect x="958" y="74" width="20" height="20" rx="2" style="fill:#ebedf0" class="square"/><rect x="958" y="101" width="20" height="20" rx="2" style="fill:#216e39" class="square"/><rect x="958" y="128" width="20" height="20" rx="2" style="fill:#30a14e" class="square"/><rect x="958" y="155" width="20" height="20" rx="2" style="fill:#216e39" class="square"/><rect x="958" y="182" width="20" height="20" rx="2" style="fill:#216e39" class="square"/><rect x="958" y="209" width="20" height="20" rx="2" style="fill:#216e39" class="square"/><rect x="985" y="47" width="20" height="20" rx="2" style="fill:#216e39" class="square"/><rect x="985" y="74" width="20" height="20" rx="2" style="fill:#216e39" class="square"/><rect x="985" y="101" width="20" height="20" rx="2" style="fill:#216e39" class="square"/><rect x="985" y="128" width="20" height="20" rx="2" style="fill:#9be9a8" class="square"/><rect x="985" y="155" width="20" height="20" rx="2" style="fill:#9be9a8" class="square"/><rect x="985" y="182" width="20" height="20" rx="2" style="fill:#9be9a8" class="square"/><rect x="985" y="209" width="20" height="20" rx="2" style="fill:#40c463" class="square"/><rect x="1012" y="47" width="20" height="20" rx="2" style="fill:#40c463" class="square"/><rect x="1012" y="74" width="20" height="20" rx="2" style="fill:#216e39" class="square"/><rect x="1012" y="101" width="20" height="20" rx="2" style="fill:#9be9a8" class="square"/><rect x="1012" y="128" width="20" height="20" rx="2" style="fill:#ebedf0" class="square"/><rect x="1012" y="155" width="20" height="20" rx="2" style="fill:#40c463" class="square"/><rect x="1012" y="182" width="20" height="20" rx="2" style="fill:#216e39" class="square"/><rect x="1012" y="209" width="20" height="20" rx="2" style="fill:#ebedf0" class="square"/><rect x="1039" y="47" width="20" height="20" rx="2" style="fill:#ebedf0" class="square"/><rect x="1039" y="74" width="20" height="20" rx="2" style="fill:#9be9a8" class="square"/><rect x="1039" y="101" width="20" height="20" rx="2" style="fill:#ebedf0" class="square"/><rect x="1039" y="128" width="20" height="20" rx="2" style="fill:#9be9a8" class="square"/><rect x="1039" y="155" width="20" height="20" rx="2" style="fill:#9be9a8" class="square"/><rect x="1039" y="182" width="20" height="20" rx="2" style="fill:#216e39" class="square"/><rect x="1039" y="209" width="20" height="20" rx="2" style="fill:#ebedf0" class="square"/><rect x="1066" y="47" width="20" height="20" rx="2" style="fill:#9be9a8" class="square"/><rect x="1066" y="74" width="20" height="20" rx="2" style="fill:#9be9a8" class="square"/><rect x="1066" y="101" width="20" height="20" rx="2" style="fill:#40c463" class="square"/><rect x="1066" y="128" width="20" height="20" rx="2" style="fill:#216e39" class="square"/><rect x="1066" y="155" width="20" height="20" rx="2" style="fill:#30a14e" class="square"/><rect x="1066" y="182" width="20" height="20" rx="2" style="fill:#216e39" class="square"/><rect x="1066" y="209" width="20" height="20" rx="2" style="fill:#ebedf0" class="square"/><rect x="1093" y="47" width="20" height="20" rx="2" style="fill:#ebedf0" class="square"/><rect x="1093" y="74" width="20" height="20" rx="2" style="fill:#30a14e" class="square"/><rect x="1093" y="101" width="20" height="20" rx="2" style="fill:#ebedf0" class="square"/><rect x="1093" y="128" width="20" height="20" rx="2" style="fill:#30a14e" class="square"/><rect x="1093" y="155" width="20" height="20" rx="2" style="fill:#9be9a8" class="square"/><rect x="1093" y="182" width="20" height="20" rx="2" style="fill:#216e39" class="square"/><rect x="1093" y="209" width="20" height="20" rx="2" style="fill:#40c463" class="square"/><rect x="1120" y="47" width="20" height="20" rx="2" style="fill:#30a14e" class="square"/><rect x="1120" y="74" width="20" height="20" rx="2" style="fill:#30a14e" class="square"/><rect x="1120" y="101" width="20" height="20" rx="2" style="fill:#ebedf0" class="square"/><rect x="1120" y="128" width="20" height="20" rx="2" style="fill:#30a14e" class="square"/><rect x="1120" y="155" width="20" height="20" rx="2" style="fill:#ebedf0" class="square"/><rect x="1120" y="182" width="20" height="20" rx="2" style="fill:#216e39" class="square"/><rect x="1120" y="209" width="20" height="20" rx="2" style="fill:#40c463" class="square"/><rect x="1147" y="47" width="20" height="20" rx="2" style="fill:#9be9a8" class="square"/><rect x="1147" y="74" width="20" height="20" rx="2" style="fill:#30a14e" class="square"/><rect x="1147" y="101" width="20" height="20" rx="2" style="fill:#9be9a8" class="square"/><rect x="1147" y="128" width="20" height="20" rx="2" style="fill:#40c463" class="square"/><rect x="1147" y="155" width="20" height="20" rx="2" style="fill:#30a14e" class="square"/><rect x="1147" y="182" width="20" height="20" rx="2" style="fill:#9be9a8" class="square"/><rect x="1147" y="209" width="20" height="20" rx="2" style="fill:#216e39" class="square"/><rect x="1174" y="47" width="20" height="20" rx="2" style="fill:#9be9a8" class="square"/><rect x="1174" y="74" width="20" height="20" rx="2" style="fill:#9be9a8" class="square"/><rect x="1174" y="101" width="20" height="20" rx="2" style="fill:#9be9a8" class="square"/><rect x="1174" y="128" width="20" height="20" rx="2" style="fill:#ebedf0" class="square"/><rect x="1174" y="155" width="20" height="20" rx="2" style="fill:#9be9a8" class="square"/><rect x="1174" y="182" width="20" height="20" rx="2" style="fill:#9be9a8" class="square"/><rect x="1174" y="209" width="20" height="20" rx="2" style="fill:#30a14e" class="square"/><rect x="1201" y="47" width="20" height="20" rx="2" style="fill:#9be9a8" class="square"/><rect x="1201" y="74" width="20" height="20" rx="2" style="fill:#216e39" class="square"/><rect x="1201" y="101" width="20" height="20" rx="2" style="fill:#30a14e" class="square"/><rect x="1201" y="128" width="20" height="20" rx="2" style="fill:#ebedf0" class="square"/><rect x="1201" y="155" width="20" height="20" rx="2" style="fill:#40c463" class="square"/><rect x="1201" y="182" width="20" height="20" rx="2" style="fill:#30a14e" class="square"/><rect x="1201" y="209" width="20" height="20" rx="2" style="fill:#216e39" class="square"/><rect x="1228" y="47" width="20" height="20" rx="2" style="fill:#40c463" class="square"/><rect x="1228" y="74" width="20" height="20" rx="2" style="fill:#30a14e" class="square"/><rect x="1228" y="101" width="20" height="20" rx="2" style="fill:#30a14e" class="square"/><rect x="1228" y="128" width="20" height="20" rx="2" style="fill:#216e39" class="square"/><rect x="1228" y="155" width="20" height="20" rx="2" style="fill:#216e39" class="square"/><rect x="1228" y="182" width="20" height="20" rx="2" style="fill:#30a14e" class="square"/><rect x="1228" y="209" width="20" height="20" rx="2" style="fill:#216e39" class="square"/><rect x="1255" y="47" width="20" height="20" rx="2" style="fill:#40c463" class="square"/><rect x="1255" y="74" width="20" height="20" rx="2" style="fill:#40c463" class="square"/><rect x="1255" y="101" width="20" height="20" rx="2" style="fill:#40c463" class="square"/><rect x="1255" y="128" width="20" height="20" rx="2" style="fill:#216e39" class="square"/><rect x="1255" y="155" width="20" height="20" rx="2" style="fill:#30a14e" class="square"/><rect x="1255" y="182" width="20" height="20" rx="2" style="fill:#9be9a8" class="square"/><rect x="1255" y="209" width="20" height="20" rx="2" style="fill:#216e39" class="square"/><rect x="1282" y="47" width="20" height="20" rx="2" style="fill:#ebedf0" class="square"/><rect x="1282" y="74" width="20" height="20" rx="2" style="fill:#216e39" class="square"/><rect x="1282" y="101" width="20" height="20" rx="2" style="fill:#30a14e" class="square"/><rect x="1282" y="128" width="20" height="20" rx="2" style="fill:#30a14e" class="square"/><rect x="1282" y="155" width="20" height="20" rx="2" style="fill:#30a14e" class="square"/><rect x="1282" y="182" width="20" height="20" rx="2" style="fill:#9be9a8" class="square"/><rect x="1282" y="209" width="20" height="20" rx="2" style="fill:#30a14e" class="square"/><rect x="1309" y="47" width="20" height="20" rx="2" style="fill:#40c463" class="square"/><rect x="1309" y="74" width="20" height="20" rx="2" style="fill:#ebedf0" class="square"/><rect x="1309" y="101" width="20" height="20" rx="2" style="fill:#30a14e" class="square"/><rect x="1309" y="128" width="20" height="20" rx="2" style="fill:#ebedf0" class="square"/><rect x="1309" y="155" width="20" height="20" rx="2" style="fill:#ebedf0" class="square"/><rect x="1309" y="182" width="20" height="20" rx="2" style="fill:#9be9a8" class="square"/><rect x="1309" y="209" width="20" height="20" rx="2" style="fill:#9be9a8" class="square"/><rect x="1336" y="47" width="20" height="20" rx="2" style="fill:#30a14e" class="square"/><rect x="1336" y="74" width="20" height="20" rx="2" style="fill:#ebedf0" class="square"/><rect x="1336" y="101" width="20" height="20" rx="2" style="fill:#40c463" class="square"/><rect x="1336" y="128" width="20" height="20" rx="2" style="fill:#216e39" class="square"/><rect x="1336" y="155" width="20" height="20" rx="2" style="fill:#216e39" class="square"/><rect x="1336" y="182" width="20" height="20" rx="2" style="fill:#30a14e" class="square"/><rect x="1336" y="209" width="20" height="20" rx="2" style="fill:#9be9a8" class="square"/><rect x="1363" y="47" width="20" height="20" rx="2" style="fill:#30a14e" class="square"/><rect x="1363" y="74" width="20" height="20" rx="2" style="fill:#30a14e" class="square"/><rect x="1363" y="101" width="20" height="20" rx="2" style="fill:#40c463" class="square"/><rect x="1363" y="128" width="20" height="20" rx="2" style="fill:#40c463" class="square"/><rect x="1363" y="155" width="20" height="20" rx="2" style="fill:#40c463" class="square"/><rect x="1363" y="182" width="20" height="20" rx="2" style="fill:#9be9a8" class="square"/><rect x="1363" y="209" width="20" height="20" rx="2" style="fill:#216e39" class="square"/><rect x="1390" y="47" width="20" height="20" rx="2" style="fill:#30a14e" class="square"/><rect x="1390" y="74" width="20" height="20" rx="2" style="fill:#40c463" class="square"/><rect x="1390" y="101" width="20" height="20" rx="2" style="fill:#ebedf0" class="square"/><rect x="1390" y="128" width="20" height="20" rx="2" style="fill:#ebedf0" class="square"/><rect x="1390" y="155" width="20" height="20" rx="2" style="fill:#216e39" class="square"/><rect x="1390" y="182" width="20" height="20" rx="2" style="fill:#30a14e" class="square"/><rect x="1390" y="209" width="20" height="20" rx="2" style="fill:#9be9a8" class="square"/><rect x="1417" y="47" width="20" height="20" rx="2" style="fill:#216e39" class="square"/><rect x="1417" y="74" width="20" height="20" rx="2" style="fill:#30a14e" class="square"/><rect x="1417" y="101" width="20" height="20" rx="2" style="fill:#30a14e" class="square"/><rect x="1417" y="128" width="20" height="20" rx="2" style="fill:#216e39" class="square"/><rect x="1417" y="155" width="20" height="20" rx="2" style="fill:#40c463" class="square"/><rect x="1417" y="182" width="20" height="20" rx="2" style="fill:#ebedf0" class="square"/><rect x="1417" y="209" width="20" height="20" rx="2" style="fill:#9be9a8" class="square"/><rect x="1444" y="47" width="20" height="20" rx="2" style="fill:#9be9a8" class="square"/><rect x="1444" y="74" width="20" height="20" rx="2" style="fill:#9be9a8" class="square"/><rect x="1444" y="101" width="20" height="20" rx="2" style="fill:#40c463" class="square"/><rect x="1444" y="128" width="20" height="20" rx="2" style="fill:#30a14e" class="square"/><rect x="1444" y="155" width="20" height="20" rx="2" style="fill:#40c463" class="square"/><rect x="1444" y="182" width="20" height="20" rx="2" style="fill:#ebedf0" class="square"/><rect x="1444" y="209" width="20" height="20" rx="2" style="fill:#216e39" class="square"/><rect x="1471" y="47" width="20" height="20" rx="2" style="fill:#30a14e" class="square"/><rect x="1471" y="74" width="20" height="20" rx="2" style="fill:#30a14e" class="square"/><rect x="1471" y="101" width="20" height="20" rx="2" style="fill:#30a14e" class="square"/><rect x="1471" y="128" width="20" height="20" rx="2" style="fill:#ebedf0" class="square"/><rect x="1471" y="155" width="20" height="20" rx="2" style="fill:#ebedf0" class="square"/><rect x="1471" y="182" width="20" height="20" rx="2" style="fill:#ebedf0" class="square"/><rect x="1471" y="209" width="20" height="20" rx="2" style="fill:#ebedf0" class="square"/></svg>
